<svg xmlns="http://www.w3.org/2000/svg" xmlns:xlink="http://www.w3.org/1999/xlink" viewBox="0,0,256,256" width="48px" height="48px"><defs><linearGradient x1="9.422" y1="8.565" x2="36.928" y2="37.688" gradientUnits="userSpaceOnUse" id="color-1"><stop offset="0" stop-color="#e81035"></stop><stop offset="1" stop-color="#ed0e0e"></stop></linearGradient></defs><g fill="none" fill-rule="nonzero" stroke="none" stroke-width="1" stroke-linecap="butt" stroke-linejoin="miter" stroke-miterlimit="10" stroke-dasharray="" stroke-dashoffset="0" font-family="none" font-weight="none" font-size="none" text-anchor="none" style="mix-blend-mode: normal"><g transform="scale(5.33333,5.33333)"><path d="M29.393,43h-10.786c-7.515,0 -13.607,-6.092 -13.607,-13.607v-10.786c0,-7.515 6.092,-13.607 13.607,-13.607h10.787c7.514,0 13.606,6.092 13.606,13.607v10.787c0,7.514 -6.092,13.606 -13.607,13.606z" fill="url(#color-1)"></path><path d="M28.303,36h-8.605c-3.169,0 -5.791,-2.464 -5.989,-5.626l-0.707,-11.312c-0.036,-0.575 0.421,-1.062 0.998,-1.062h4c0,-3.309 2.691,-6 6,-6c3.309,0 6,2.691 6,6h4c0.577,0 1.034,0.487 0.998,1.062l-0.707,11.312c-0.198,3.163 -2.82,5.626 -5.988,5.626zM15.064,20l0.641,10.249c0.132,2.104 1.886,3.751 3.992,3.751h8.605c2.106,0 3.86,-1.647 3.992,-3.751l0.642,-10.249h-4.936v-2v2zM22,18h4c0,-1.103 -0.897,-2 -2,-2c-1.103,0 -2,0.897 -2,2z" fill="#222220" opacity="0.05"></path><path d="M28.302,35.5h-8.605c-2.905,0 -5.308,-2.258 -5.49,-5.157l-0.674,-10.78c-0.036,-0.576 0.421,-1.062 0.998,-1.062h3.969v-0.254c0,-2.871 2.093,-5.44 4.95,-5.719c3.278,-0.32 6.05,2.259 6.05,5.473v0.5h3.968c0.577,0 1.034,0.487 0.998,1.062l-0.674,10.78c-0.181,2.899 -2.585,5.157 -5.49,5.157zM14.532,19.5l0.674,10.78c0.148,2.366 2.121,4.22 4.491,4.22h8.605c2.37,0 4.343,-1.854 4.491,-4.22l0.674,-10.78h-4.967v-1.5c0,-2.481 -2.019,-4.5 -4.5,-4.5c-2.481,0 -4.5,2.019 -4.5,4.5v1.5zM27.5,19.5h-7v-1.5c0,-1.93 1.57,-3.5 3.5,-3.5c1.93,0 3.5,1.57 3.5,3.5zM21.5,18.5h5v-0.5c0,-1.379 -1.121,-2.5 -2.5,-2.5c-1.379,0 -2.5,1.121 -2.5,2.5z" fill="#030000" opacity="0.07"></path><path d="M29,19v-0.777c0,-2.61 -1.903,-4.945 -4.5,-5.199c-2.98,-0.291 -5.5,2.054 -5.5,4.976v1h-3.936c-0.577,0 -1.034,0.487 -0.998,1.062l0.641,10.249c0.165,2.635 2.35,4.688 4.99,4.688h8.605c2.64,0 4.826,-2.053 4.99,-4.688l0.641,-10.249c0.037,-0.575 -0.421,-1.062 -0.997,-1.062zM21,18c0,-1.654 1.346,-3 3,-3c1.654,0 3,1.346 3,3v1h-6z" fill="#ffffff"></path></g></g></svg>